# xmcd
#
# Track frame offsets: 
#        180
#        15385
#        33467
#        52585
#        68190
#        82823
#        99112
#        110094
#        131997
#        149632
#        160476
#        184860
#        195345
#        208917
#        228417
#        243323
#        264058
#
# Disc length: 3881 seconds
#
# Revision: 0
# Processed by: cddbd v1.5.1PL2 Copyright (c) Steve Scherf et al.
# Submitted via: ExactAudioCopy v0.95a5
#
DISCID=e20f2711
DTITLE=Various Artist - Jehovah Jireh
DYEAR=2002
DGENRE=Contemporary Christian
TTITLE0=Amazing Grace
TTITLE1=Look At Us
TTITLE2=Jake The Jesus Man
TTITLE3=Are Yor Ready
TTITLE4=Glory Train Ride
TTITLE5=The Door
TTITLE6=I'm Gonna Sing
TTITLE7=How Far Would You Go
TTITLE8=Ami's Eyes
TTITLE9=I'm His Servant
TTITLE10=Can I Still Call You Mama
TTITLE11=The Preacher's Kid
TTITLE12=GOD Sent Me A Letter
TTITLE13=Flight Of The Mercy Train
TTITLE14=Sermon On The Mountain
TTITLE15=It's A Grief
TTITLE16=Jonny Came Home
EXTD=
EXTT0=
EXTT1=
EXTT2=
EXTT3=
EXTT4=
EXTT5=
EXTT6=
EXTT7=
EXTT8=
EXTT9=
EXTT10=
EXTT11=
EXTT12=
EXTT13=
EXTT14=
EXTT15=
EXTT16=
PLAYORDER=
